<svg xmlns="http://www.w3.org/2000/svg" width="147" height="48" viewBox="0 0 147 48">
    <path fill="#4C7EBF" fill-rule="evenodd" d="M43.52 7.27c-2.65 0-5.341.872-7.41 2.469-1.44 1.11-2.486 2.457-3.023 3.893-.532 1.421-.54 2.931-.023 4.144 1.042 2.44 3.244 4.127 6.042 4.63 2.847.513 6.128.53 9.395.398V13.02c.016-1.407.03-2.821-.32-3.857-.117-.343-.426-1.255-2.276-1.647-.78-.165-1.58-.246-2.385-.246zm12.32 23.472H48.5v-.667c-3.612.137-7.296.093-10.707-.52-5.2-.935-9.495-4.281-11.49-8.95-1.237-2.898-1.273-6.36-.098-9.498 1.011-2.702 2.876-5.158 5.394-7.1C36.03.59 41.95-.752 47.44.412c3.83.812 6.562 3.097 7.696 6.437.745 2.2.721 4.423.703 6.21v17.684zm-33.779-.067c-2.93 0-4.778-.132-8.11-.96-4.749-1.182-8.656-3.698-11.002-7.085-3.463-5.001-3.395-10.642.19-15.476C5.54 3.917 9.487 1.598 14.256.628c3.202-.653 5.006-.64 7.736-.622.49.003 1.02.008 1.605.008v7.265c-.604 0-1.15-.004-1.657-.008-2.504-.017-3.76-.025-6.206.473-2.984.608-5.356 1.925-6.68 3.71-1.72 2.32-1.738 4.634-.052 7.069 1.332 1.924 3.724 3.396 6.737 4.145 3.106.772 4.365.762 7.729.734l.06 7.264c-.522.006-1.009.009-1.467.009zm57.616 0c-2.93 0-4.778-.132-8.11-.96-4.75-1.182-8.657-3.698-11.001-7.085-3.464-5.001-3.396-10.642.19-15.476 2.4-3.237 6.347-5.556 11.116-6.526 3.203-.653 5.006-.64 7.735-.622.491.003 1.02.008 1.605.008v7.265c-.604 0-1.15-.004-1.655-.008-2.502-.016-3.76-.026-6.207.473-2.983.608-5.356 1.925-6.68 3.71-1.72 2.32-1.738 4.634-.052 7.069 1.333 1.924 3.725 3.396 6.737 4.145 3.107.772 4.365.762 7.728.734l.062 7.264c-.522.006-1.01.009-1.468.009zM97.36 7.265c-4.118 0-7.468 3.318-7.468 7.393v1.433c0 4.077 3.35 7.393 7.468 7.393h1.445c4.12 0 7.47-3.316 7.47-7.393v-1.433c0-4.075-3.35-7.392-7.47-7.392H97.36zm1.445 23.485H97.36c-8.165 0-14.807-6.576-14.807-14.66v-1.432C82.552 6.576 89.194 0 97.36 0h1.445c8.165 0 14.807 6.576 14.807 14.658v1.433c0 8.083-6.642 14.66-14.807 14.66zm31.478-23.484c-4.118 0-7.467 3.317-7.467 7.392v1.433c0 4.077 3.35 7.393 7.467 7.393h1.446c4.119 0 7.468-3.316 7.468-7.393v-1.433c0-4.075-3.35-7.392-7.468-7.392h-1.446zm1.446 23.484h-1.446c-8.164 0-14.806-6.576-14.806-14.66v-1.432C115.476 6.576 122.118 0 130.282 0h1.446c8.164 0 14.805 6.576 14.805 14.658v1.433c0 8.083-6.64 14.66-14.805 14.66zM118.15 45.824h-1.595v-3.541c0-1.064-.875-1.93-1.949-1.93a1.94 1.94 0 0 0-1.947 1.93v3.541h-1.597v-3.541c0-1.936 1.59-3.51 3.544-3.51 1.955 0 3.544 1.574 3.544 3.51v3.541zm4.208.237c-1.955 0-3.545-1.575-3.545-3.509v-3.541h1.596v3.541c0 1.064.874 1.93 1.949 1.93a1.941 1.941 0 0 0 1.948-1.93v-3.541h1.596v3.541c0 1.934-1.59 3.509-3.544 3.509zm10.172-5.691a1.941 1.941 0 0 0-1.949 1.93 1.94 1.94 0 0 0 1.949 1.927h1.981V40.37h-1.981zm3.577 5.438h-3.577c-1.955 0-3.545-1.575-3.545-3.509 0-1.935 1.59-3.509 3.545-3.509h3.577v7.018zm2.454-1.58h1.981a1.941 1.941 0 0 0 1.948-1.93 1.94 1.94 0 0 0-1.948-1.928h-1.981v3.858zm1.981 1.58h-3.578v-9.94h1.597v2.922h1.981c1.954 0 3.544 1.574 3.544 3.508 0 1.936-1.59 3.51-3.544 3.51zm-13.853.016v-9.907h1.595v9.907h-1.595zm-25.694-.611c.975 0 1.717-.765 1.717-1.73 0-.947-.742-1.722-1.717-1.722-.986 0-1.728.775-1.728 1.721 0 .966.742 1.73 1.728 1.73zm-1.728.724h-.843v-6.943h.843v3.029c.356-.654 1.036-1.087 1.88-1.087 1.413 0 2.45 1.118 2.45 2.546 0 1.449-1.037 2.555-2.45 2.555-.844 0-1.524-.421-1.88-1.075v.975zm6.403-.372l-1.911-4.528h.966l1.413 3.472 1.453-3.472h.966L105.537 48h-.975l1.107-2.435z"/>
</svg>
